<svg width="375" height="476" viewBox="0 0 375 476" fill="none" xmlns="http://www.w3.org/2000/svg">
<path opacity="0.4" d="M-196.309 465.378C-216.198 422.384 -236.242 375.785 -231.068 327.229C-224.708 267.448 -182.638 229.876 -123.634 224.463C-36.618 216.489 41.6991 273.745 126.023 286.373C301.251 312.627 398.672 165.905 412.621 8.5431C413.48 -1.13827 398.474 -3.51275 397.609 6.24435C388.95 103.974 352.899 208.832 258.894 254.875C159.426 303.588 62.3045 249.687 -33.2859 221.003C-92.24 203.308 -167.348 199.476 -213.188 248.435C-272.213 311.474 -241.879 403.259 -210.397 471.064C-206.284 479.905 -192.2 474.257 -196.309 465.378Z" fill="#697DDB"/>
</svg>
