<svg width="151" height="122" viewBox="0 0 151 122" fill="none" xmlns="http://www.w3.org/2000/svg">
<path d="M143.845 -43.1017C143.845 -43.1017 108.804 -8.06075 104.25 -3.47871C100.067 0.676319 0.141709 100.866 0.141709 100.866L0.133221 100.874C0.133221 100.874 31.5558 111.272 109.495 33.3209C96.4208 10.0989 117.277 6.32308 124.995 2.87601C137.62 -2.76515 157.395 -29.5916 157.395 -29.5916L157.341 -29.6281C157.4 -29.659 157.448 -29.6788 157.499 -29.735C161.263 -33.4602 161.263 -39.5339 157.504 -43.2366C153.793 -46.9646 147.703 -46.9703 143.997 -43.2367C143.949 -43.217 143.893 -43.1608 143.896 -43.1131L143.845 -43.1017Z" fill="#D0DCD9"/>
<path d="M47.1021 28.3227C59.8757 22.9722 60.701 43.8458 64.1215 49.8831C65.9245 53.0621 68.5143 56.3418 72.0911 57.6319C84.5423 62.128 103.955 37.5269 108.626 58.0877C110.965 68.3827 108.062 79.019 117.585 86.6786C124.098 91.9177 132.182 91.8335 138.644 86.9669C141.242 85.0092 137.96 81.1565 135.384 83.1225C125.335 90.796 116.786 77.7477 114.562 69.9167C113.449 65.999 114.056 62.1084 113.672 58.159C113.321 54.5391 112.906 51.4953 110.571 48.5589C105.935 42.7256 97.6961 42.3718 91.2793 45.0634C89.714 45.718 88.3485 46.8147 86.8344 47.5477C82.7773 49.509 74.6774 52.2309 70.1694 49.9552C66.1057 47.9058 64.8942 33.1542 62.0141 28.9799C58.074 23.2705 52.0401 20.7965 45.616 23.5063C42.6483 24.7559 44.1029 29.5778 47.1021 28.3227Z" fill="#49AC9B"/>
</svg>
