<svg width="132" height="175" viewBox="0 0 132 175" fill="none" xmlns="http://www.w3.org/2000/svg">
<path d="M97.0626 83.7278L125.105 27.689L119.563 24.0579L87.24 76.9322C86.2655 78.5172 84.1756 78.9861 82.615 77.9664L81.5604 77.2721C80.0379 76.2722 79.6133 74.2315 80.6097 72.7067L114.545 20.7735L109.672 17.6096L75.5033 69.8999C74.5069 71.4247 72.4616 71.8566 70.9332 70.8578C69.4084 69.8615 68.9766 67.8161 69.9754 66.2877L104.149 13.9904L98.7804 10.4926L64.5951 62.7772C63.5987 64.302 61.5557 64.7302 60.0273 63.7315L59.1167 63.1365C57.5562 62.1168 57.1511 60.0073 58.2184 58.4831L94.1175 7.42036L89.061 4.1162L50.6098 49.5314C50.6098 49.5314 49.2441 51.2939 48.7821 52.001C43.8002 59.6251 43.5713 68.5613 45.5071 76.7973C47.1141 83.626 49.3007 89.0295 46.8119 95.903C41.7873 106.603 29.4344 118.348 22.2148 127.353C-3.27137 159.135 -27.76 199.411 -27.76 199.411L-27.7386 199.425C-27.7854 199.481 -27.844 199.54 -27.8883 199.607C-31.3208 204.86 -29.175 212.393 -23.9242 215.844C-23.9242 215.844 -23.9028 215.858 -23.8421 215.898C-18.5749 219.34 -10.6958 218.348 -7.2586 213.088C-7.21427 213.02 -7.1771 212.947 -7.15172 212.877L-7.13028 212.891C-7.13028 212.891 26.1729 161.692 38.795 138.188C44.1109 128.29 49.6853 112.803 57.1222 103.761C62.5136 99.4877 69.6006 98.1718 76.1616 96.6702C84.058 94.8641 91.0042 92.009 96.0191 85.2779C96.3453 84.8489 97.0626 83.7278 97.0626 83.7278Z" fill="#D0DCD9"/>
<path d="M-21.7803 85.0688C-3.57808 69.4819 24.8834 73.6706 32.9053 98.274C36.2369 108.505 34.2924 119.89 38.7183 129.877C44.1646 142.163 56.6254 149.46 68.8968 141.56C73.2219 138.77 69.4056 131.719 65.0267 134.509C42.7621 148.708 43.834 105.904 40.5577 95.8163C37.7042 87.0297 32.1764 79.6088 24.6115 74.3564C8.21087 62.976 -11.895 65.997 -26.5204 78.5768C-30.4246 81.9323 -25.7166 88.4408 -21.7803 85.0688Z" fill="#FE9F6B"/>
</svg>
